<svg xmlns="http://www.w3.org/2000/svg" width="256" height="256" viewBox="0 0 100 100"><path d="M6.34 43.38L6.34 43.38Q6.55 42.33 6.62 41.66Q6.69 40.99 6.13 40.22L6.13 40.22Q6.41 39.09 6.58 38.46Q6.76 37.83 6.62 36.70L6.62 36.70Q7.25 34.87 8.55 33.61Q9.85 32.34 11.40 31.46Q12.95 30.58 14.63 29.99Q16.32 29.39 17.80 28.97L17.80 28.97Q17.80 28.69 17.52 28.69Q17.23 28.69 17.38 28.33L17.38 28.33Q21.17 27.63 25.00 26.30Q28.84 24.96 32.84 23.90Q36.85 22.85 41.07 22.60Q45.29 22.36 49.93 23.69L49.93 23.69Q50.21 24.54 50.70 25.31Q51.20 26.08 51.72 26.82Q52.25 27.56 52.67 28.26Q53.09 28.97 53.16 29.74L53.16 29.74Q54.01 30.51 54.54 31.39Q55.06 32.27 54.71 33.75L54.71 33.75Q53.94 34.31 53.09 34.87Q52.25 35.44 51.34 35.93L51.34 35.93Q48.17 35.15 45.01 35.37Q41.84 35.58 39.31 35.86L39.31 35.86Q38.54 35.01 37.48 35.05Q36.43 35.08 35.27 35.40Q34.11 35.72 32.98 36.03Q31.86 36.35 30.88 36.21L30.88 36.21Q30.10 36.91 28.84 37.16Q27.57 37.40 26.16 37.55L26.16 37.55Q26.09 37.90 26.30 38.04Q26.52 38.18 26.38 38.60L26.38 38.60Q26.87 39.23 27.71 39.48Q28.55 39.73 29.43 39.94Q30.31 40.15 31.02 40.53Q31.72 40.92 31.93 41.76L31.93 41.76Q33.20 41.83 34.11 42.43Q35.02 43.03 35.66 43.87Q36.29 44.72 36.57 45.67Q36.85 46.62 36.78 47.39L36.78 47.39Q37.06 48.09 37.38 47.95Q37.70 47.81 38.12 48.30L38.12 48.30Q38.40 49.36 39.42 50.52Q40.44 51.68 41 53.01L41 53.01Q41.14 55.12 41.25 56.81Q41.35 58.50 40.65 60.12L40.65 60.12Q39.45 63.21 37.20 65.67Q34.95 68.13 32.11 69.99Q29.26 71.86 26.09 73.23Q22.93 74.60 19.84 75.51L19.84 75.51Q19.55 75.44 19.17 75.51Q18.78 75.58 18.99 75.09L18.99 75.09Q18.36 75.65 17.55 75.80Q16.74 75.94 15.79 75.90Q14.84 75.87 13.89 75.80Q12.95 75.73 12.03 75.87L12.03 75.87Q11.47 75.30 11.01 74.74Q10.55 74.18 10.27 73.40L10.27 73.40Q9.92 73.33 9.96 72.95Q9.99 72.56 9.64 72.56L9.64 72.56Q9.64 72.28 9.71 72.14Q9.78 72.00 9.85 71.86L9.85 71.86Q10.13 71.65 10.10 71.54Q10.06 71.44 9.89 71.33Q9.71 71.23 9.54 71.08Q9.36 70.94 9.43 70.73L9.43 70.73Q9.78 70.10 9.68 69.22Q9.57 68.34 9.50 67.43Q9.43 66.51 9.64 65.71Q9.85 64.90 10.84 64.33L10.84 64.33Q13.72 64.62 16.29 64.05Q18.85 63.49 21.14 62.51Q23.42 61.52 25.50 60.36Q27.57 59.20 29.54 58.22L29.54 58.22Q29.75 57.51 30.21 57.02Q30.66 56.53 31.16 56.07Q31.65 55.62 32.07 55.09Q32.49 54.56 32.70 53.79L32.70 53.79Q32.77 53.51 32.70 53.37Q32.63 53.23 32.49 53.12Q32.35 53.01 32.21 52.87Q32.07 52.73 32.07 52.45L32.07 52.45Q31.86 52.38 31.68 52.31Q31.51 52.24 31.37 52.24L31.37 52.24Q29.54 51.33 27.50 50.69Q25.46 50.06 24.05 49.29L24.05 49.29Q23.21 49.85 22.37 49.57Q21.52 49.29 20.33 49.01L20.33 49.01Q17.38 48.87 14.74 48.44Q12.10 48.02 9.64 46.97L9.64 46.97Q9.50 46.55 9.29 46.23Q9.08 45.91 8.30 46.05L8.30 46.05Q7.81 45.35 7.29 44.75Q6.76 44.15 6.34 43.38ZM48.88 69.05L48.88 69.05Q48.52 69.12 48.24 68.52Q47.96 67.92 47.61 67.36L47.61 67.36L48.38 67.36Q47.89 65.81 48.14 64.51Q48.38 63.21 48.73 61.98Q49.09 60.75 49.33 59.59Q49.58 58.43 49.09 57.16L49.09 57.16Q49.44 57.37 49.61 56.99Q49.79 56.60 49.89 56.00Q50 55.40 49.96 54.74Q49.93 54.07 49.86 53.65L49.86 53.65Q50.77 51.47 51.30 49.15Q51.83 46.83 52.25 44.54Q52.67 42.26 53.20 40.11Q53.73 37.97 54.57 36.07L54.57 36.07Q55.55 35.93 56.64 36.32Q57.73 36.70 58.09 37.26L58.09 37.26Q60.27 35.58 61.95 33.19Q63.64 30.80 65.36 28.51Q67.09 26.23 69.27 24.47Q71.45 22.71 74.68 22.36L74.68 22.36Q76.37 23.55 78.48 24.92Q80.59 26.30 81.92 28.33L81.92 28.33Q82.48 28.69 83.01 29.07Q83.54 29.46 84.10 29.81L84.10 29.81L84.10 30.87Q85.09 31.78 85.75 33.01Q86.42 34.24 86.95 35.61Q87.48 36.98 87.97 38.39Q88.46 39.80 89.09 40.99L89.09 40.99Q88.95 41.41 88.99 41.73Q89.02 42.05 89.13 42.36Q89.23 42.68 89.30 43.07Q89.38 43.45 89.38 44.01L89.38 44.01Q89.09 47.74 86.95 50.03Q84.80 52.31 81.75 53.75Q78.69 55.19 75.24 56.21Q71.80 57.23 68.98 58.43L68.98 58.43Q68.98 58.71 69.30 58.71Q69.62 58.71 69.48 59.13L69.48 59.13Q71.59 60.40 72.75 61.17Q73.91 61.94 74.93 62.47Q75.95 63.00 77.18 63.35Q78.41 63.70 80.59 64.19L80.59 64.19Q82.77 64.69 84.00 65.00Q85.23 65.32 86.21 65.49Q87.20 65.67 88.32 65.81Q89.45 65.95 91.34 66.16L91.34 66.16Q92.12 66.94 92.61 67.99Q93.10 69.05 93.31 70.10Q93.52 71.15 93.42 72.10Q93.31 73.05 92.82 73.62L92.82 73.62Q92.89 73.90 93.21 73.86Q93.52 73.83 93.88 73.90L93.88 73.90Q93.38 74.25 93.03 74.74Q92.68 75.23 92.33 75.73Q91.98 76.22 91.52 76.64Q91.06 77.06 90.36 77.13L90.36 77.13Q87.83 78.12 83.89 77.20Q79.95 76.29 73.84 73.97L73.84 73.97Q70.81 72.84 68.91 71.93Q67.02 71.01 65.61 70.14Q64.20 69.26 63.01 68.24Q61.81 67.22 60.27 65.81L60.27 65.81Q60.05 65.88 60.02 66.09Q59.98 66.30 59.77 66.37L59.77 66.37Q59.42 69.19 58.68 70.94Q57.95 72.70 56.54 74.53L56.54 74.53Q55.41 74.32 55.03 74.74Q54.64 75.16 54.08 75.51L54.08 75.51Q53.38 75.65 53.02 75.48Q52.67 75.30 52.39 75.09Q52.11 74.88 51.76 74.67Q51.41 74.46 50.63 74.53L50.63 74.53Q50.42 73.90 50.21 73.30Q50 72.70 49.09 72.77L49.09 72.77Q49.30 72.14 49.23 71.68Q49.16 71.23 49.02 70.84Q48.88 70.45 48.77 70.03Q48.66 69.61 48.88 69.05ZM72.36 36.91L72.36 36.91Q71.45 38.25 70.32 39.34Q69.20 40.43 68.11 41.59Q67.02 42.75 66.17 44.12Q65.33 45.49 64.98 47.39L64.98 47.39Q67.93 47.04 71.16 45.74Q74.40 44.44 77.28 43.24L77.28 43.24Q76.93 40.64 75.45 39.06Q73.98 37.48 72.36 36.91Z" fill="#4a90e2"></path></svg>